# xmcd
#
# Track frame offsets: 
#        225
#        22942
#        41944
#        58047
#        74770
#        86915
#        113622
#        135807
#        153802
#
# Disc length: 2515 seconds
#
# Revision: 0
# Processed by: cddbd v1.5.2PL0 Copyright (c) Steve Scherf et al.
# Submitted via: ExactAudioCopy v1.0b3
#
DISCID=7209d009
DTITLE=Jorge Cruz - Sede
DYEAR=2004
DGENRE=Balada
TTITLE0=balada da sede
TTITLE1=lua no meio
TTITLE2=adriana
TTITLE3=fado de uma rua qualquer
TTITLE4=perdas e danos
TTITLE5=serembro1.s
TTITLE6=canção da tua rua
TTITLE7=brincar com o fogo
TTITLE8=roupas (parte 2)
EXTD=
EXTT0=
EXTT1=
EXTT2=
EXTT3=
EXTT4=
EXTT5=
EXTT6=
EXTT7=
EXTT8=
PLAYORDER=
